# xmcd CD database file
#
# Track frame offsets:
#	150
#	16192
#	30984
#	42885
#	57952
#	76617
#	92959
#	109719
#	130996
#	144949
#	159149
#	170984
#
# Disc length: 2447 seconds
#
# Revision: 0
# Processed by: cddbd v1.5.2PL0 Copyright (c) Steve Scherf et al.
# Submitted via: CDex 1.70beta2
#
DISCID=8a098d0c
DTITLE=Plínio Oliveira - O Caminho do Arco-íris
DYEAR=1900
DGENRE=New Age
TTITLE0=O Caminho do Arco-íris
TTITLE1=Esse Corpo Meu
TTITLE2=Olhos de Amor
TTITLE3=Tudo Pode Ser
TTITLE4=Olho Você
TTITLE5=De Mil Lugares
TTITLE6=Começo e Fim
TTITLE7=Eu Curumim
TTITLE8=A Falena
TTITLE9=Um Pouco de Gratidão
TTITLE10=O Tempo e o Destino
TTITLE11=Daqui Pra Frente
EXTD=
EXTT0=
EXTT1=
EXTT2=
EXTT3=
EXTT4=
EXTT5=
EXTT6=
EXTT7=
EXTT8=
EXTT9=
EXTT10=
EXTT11=
PLAYORDER=
